<svg viewBox="0 0 24 24" xmlns="http://www.w3.org/2000/svg">
  <path d="M3.0,3.0 L21.0,3.0 L21.0,21.0 L3.0,21.0 Z M4.3,4.3 L4.3,19.7 L19.7,19.7 L19.7,4.3 Z M10.170,11.727 Q10.862,11.905 11.221,12.348 Q11.581,12.789 11.581,13.472 Q11.581,14.490 10.802,15.019 Q10.023,15.548 8.531,15.548 Q8.003,15.548 7.474,15.463 Q6.945,15.378 6.427,15.208 L6.427,13.848 Q6.923,14.095 7.410,14.222 Q7.898,14.348 8.370,14.348 Q9.070,14.348 9.444,14.106 Q9.818,13.862 9.818,13.408 Q9.818,12.940 9.435,12.700 Q9.053,12.460 8.305,12.460 L7.600,12.460 L7.600,11.323 L8.342,11.323 Q9.007,11.323 9.331,11.115 Q9.657,10.907 9.657,10.481 Q9.657,10.088 9.340,9.872 Q9.025,9.657 8.447,9.657 Q8.022,9.657 7.587,9.754 Q7.152,9.849 6.721,10.036 L6.721,8.745 Q7.242,8.598 7.755,8.525 Q8.269,8.452 8.764,8.452 Q10.096,8.452 10.758,8.890 Q11.420,9.327 11.420,10.207 Q11.420,10.806 11.104,11.189 Q10.788,11.571 10.170,11.727 Z M13.322,8.575 L17.706,8.575 L17.706,9.872 L14.729,9.872 L14.729,10.931 Q14.930,10.875 15.133,10.846 Q15.337,10.815 15.557,10.815 Q16.807,10.815 17.504,11.441 Q18.200,12.067 18.200,13.184 Q18.200,14.292 17.442,14.921 Q16.684,15.548 15.337,15.548 Q14.755,15.548 14.185,15.435 Q13.615,15.322 13.052,15.094 L13.052,13.706 Q13.610,14.027 14.112,14.188 Q14.613,14.348 15.059,14.348 Q15.699,14.348 16.067,14.034 Q16.437,13.720 16.437,13.184 Q16.437,12.643 16.067,12.332 Q15.699,12.020 15.059,12.020 Q14.678,12.020 14.247,12.119 Q13.817,12.218 13.322,12.423 L13.322,8.575 Z M2.0,9.375 3.000,8.938 3.000,10.938 2.0,11.375z M16.571,3.000 22.0,0.625 22.0,2.625 21.000,3.062z M2.0,15.375 3.000,14.938 3.000,16.938 2.0,17.375z M21.000,7.062 22.0,6.625 22.0,8.625 21.000,9.062z M2.0,21.375 3.000,20.938 7.429,21.000 2.0,23.375z M21.000,13.062 22.0,12.625 22.0,14.625 21.000,15.062z M5.901999999999999,8.45 7.497999999999999,8.45 7.497999999999999,6.6499999999999995 8.25,6.6499999999999995 6.699999999999999,4.899999999999999 5.1499999999999995,6.6499999999999995 5.901999999999999,6.6499999999999995z " />
</svg>