<svg viewBox="0 0 24 24" xmlns="http://www.w3.org/2000/svg">
  <path d="M18,12 A6,6 0 1,1 6,12 A6,6 0 1,1 18,12 Z M16.5,12 A4.5,4.5 0 1,0 7.5,12 A4.5,4.5 0 1,0 16.5,12 Z M9.734,11.009 L9.734,11.972 L10.692,11.972 L10.692,12.404 L9.734,12.404 L9.734,13.366 L9.297,13.366 L9.297,12.404 L8.339,12.404 L8.339,11.972 L9.297,11.972 L9.297,11.009 L9.734,11.009 Z M12.451,12.014 Q12.265,12.014 12.172,12.134 Q12.080,12.254 12.080,12.495 Q12.080,12.735 12.172,12.855 Q12.265,12.975 12.451,12.975 Q12.638,12.975 12.730,12.855 Q12.823,12.735 12.823,12.495 Q12.823,12.254 12.730,12.134 Q12.638,12.014 12.451,12.014 Z M13.324,10.698 L13.324,11.204 Q13.150,11.122 12.995,11.082 Q12.841,11.043 12.695,11.043 Q12.379,11.043 12.203,11.219 Q12.027,11.394 11.997,11.738 Q12.118,11.648 12.259,11.604 Q12.401,11.559 12.568,11.559 Q12.988,11.559 13.246,11.805 Q13.504,12.050 13.504,12.448 Q13.504,12.889 13.216,13.154 Q12.928,13.420 12.443,13.420 Q11.909,13.420 11.616,13.059 Q11.324,12.698 11.324,12.036 Q11.324,11.357 11.666,10.968 Q12.009,10.580 12.605,10.580 Q12.794,10.580 12.972,10.610 Q13.150,10.639 13.324,10.698 Z M14.104,10.626 L15.861,10.626 L15.861,11.146 L14.668,11.146 L14.668,11.570 Q14.749,11.547 14.830,11.536 Q14.912,11.523 15.000,11.523 Q15.501,11.523 15.780,11.774 Q16.059,12.025 16.059,12.472 Q16.059,12.917 15.755,13.168 Q15.452,13.420 14.912,13.420 Q14.679,13.420 14.450,13.375 Q14.222,13.329 13.996,13.238 L13.996,12.682 Q14.220,12.810 14.421,12.875 Q14.622,12.939 14.800,12.939 Q15.057,12.939 15.204,12.813 Q15.352,12.687 15.352,12.472 Q15.352,12.256 15.204,12.131 Q15.057,12.006 14.800,12.006 Q14.648,12.006 14.475,12.046 Q14.303,12.085 14.104,12.168 L14.104,10.626 Z M 3.0, 9.5 a 1.0,1.0 0 1,0 2.0,0 a 1.0,1.0 0 1,0 -2.0,0 M 19.0, 2.5 a 1.0,1.0 0 1,0 2.0,0 a 1.0,1.0 0 1,0 -2.0,0 M 3.0, 15.5 a 1.0,1.0 0 1,0 2.0,0 a 1.0,1.0 0 1,0 -2.0,0 M 19.0, 8.5 a 1.0,1.0 0 1,0 2.0,0 a 1.0,1.0 0 1,0 -2.0,0 M 3.0, 21.5 a 1.0,1.0 0 1,0 2.0,0 a 1.0,1.0 0 1,0 -2.0,0 M 19.0, 14.5 a 1.0,1.0 0 1,0 2.0,0 a 1.0,1.0 0 1,0 -2.0,0 M4,8.5 20,1.5 20,3.5 4,10.5z M4,14.5 6.778,13.285 6.778,15.285 4,16.5z M17.222,8.715 20,7.5 20,9.5 17.222,10.715z M4,20.5 20,13.5 20,15.5 4,22.5z " />
</svg>