<svg xmlns="http://www.w3.org/2000/svg" viewBox="0 0 24 24">
  <polygon points="2.0,9.375 3.000,8.938 3.000,10.938 2.0,11.375"/>
  <polygon points="16.571,3.000 22.0,0.625 22.0,2.625 21.000,3.062"/>
  <polygon points="2.0,15.375 3.000,14.938 3.000,16.938 2.0,17.375"/>
  <polygon points="21.000,7.062 22.0,6.625 22.0,8.625 21.000,9.062"/>
  <polygon points="2.0,21.375 3.000,20.938 7.429,21.000 2.0,23.375"/>
  <polygon points="21.000,13.062 22.0,12.625 22.0,14.625 21.000,15.062"/>
  <path d="M3.0,3.0 L21.0,3.0 L21.0,21.0 L3.0,21.0 Z M4.3,4.3 L4.3,19.7 L19.7,19.7 L19.7,4.3 Z"/>
  <path d="M6.417,8.631 L11.487,8.631 L11.487,9.609 L8.864,15.359 L7.174,15.359 L9.657,9.907 L6.417,9.907 L6.417,8.631 Z M16.465,11.988 Q16.465,10.726 16.229,10.211 Q15.993,9.695 15.433,9.695 Q14.875,9.695 14.636,10.211 Q14.396,10.726 14.396,11.988 Q14.396,13.264 14.636,13.787 Q14.875,14.309 15.433,14.309 Q15.988,14.309 16.226,13.787 Q16.465,13.264 16.465,11.988 Z M18.200,12.002 Q18.200,13.673 17.479,14.582 Q16.758,15.490 15.433,15.490 Q14.104,15.490 13.383,14.582 Q12.662,13.673 12.662,12.002 Q12.662,10.325 13.383,9.418 Q14.104,8.510 15.433,8.510 Q16.758,8.510 17.479,9.418 Q18.200,10.325 18.200,12.002 Z"/>
  <polygon points="16.502000000000002,15.55 18.098,15.55 18.098,17.35 18.849999999999998,17.35 17.3,19.099999999999998 15.75,17.35 16.502000000000002,17.35"/>
</svg>
