<svg xmlns="http://www.w3.org/2000/svg" viewBox="0 0 24 24">
  <polygon points="4,8.5 20,1.5 20,3.5 4,10.5"/>
  <circle cx="4" cy="9.5" r="1"/>
  <circle cx="20" cy="2.5" r="1"/>
  <polygon points="4,14.5 6.778,13.285 6.778,15.285 4,16.5"/>
  <circle cx="4" cy="15.5" r="1"/>
  <polygon points="17.222,8.715 20,7.5 20,9.5 17.222,10.715"/>
  <circle cx="20" cy="8.5" r="1"/>
  <polygon points="4,20.5 20,13.5 20,15.5 4,22.5"/>
  <circle cx="4" cy="21.5" r="1"/>
  <circle cx="20" cy="14.5" r="1"/>
  <path d="M18,12 A6,6 0 1,1 6,12 A6,6 0 1,1 18,12 Z M16.5,12 A4.5,4.5 0 1,0 7.5,12 A4.5,4.5 0 1,0 16.5,12 Z"/>
  <path d="M8.294,11.993 L9.689,11.993 L9.689,12.640 L8.294,12.640 L8.294,11.993 Z M10.470,13.036 L11.226,13.036 L11.226,10.891 L10.450,11.051 L10.450,10.468 L11.221,10.308 L12.035,10.308 L12.035,13.036 L12.791,13.036 L12.791,13.627 L10.470,13.627 L10.470,13.036 Z M13.586,10.308 L15.713,10.308 L15.713,10.938 L14.269,10.938 L14.269,11.451 Q14.366,11.424 14.465,11.410 Q14.564,11.395 14.671,11.395 Q15.277,11.395 15.615,11.699 Q15.953,12.002 15.953,12.545 Q15.953,13.082 15.585,13.387 Q15.218,13.692 14.564,13.692 Q14.282,13.692 14.005,13.637 Q13.728,13.582 13.455,13.471 L13.455,12.798 Q13.726,12.953 13.969,13.032 Q14.213,13.109 14.429,13.109 Q14.740,13.109 14.918,12.957 Q15.097,12.805 15.097,12.545 Q15.097,12.282 14.918,12.131 Q14.740,11.980 14.429,11.980 Q14.244,11.980 14.035,12.028 Q13.826,12.076 13.586,12.175 L13.586,10.308 Z"/>
</svg>
