<svg xmlns="http://www.w3.org/2000/svg" viewBox="0 0 24 24">
  <polygon points="2.0,9.375 5.048,8.041 4.155,10.432 2.0,11.375"/>
  <circle cx="2.0" cy="10.375" r="1"/>
  <polygon points="13.811,4.208 22.0,0.625 22.0,2.625 16.173,5.174"/>
  <circle cx="22.0" cy="1.625" r="1"/>
  <polygon points="2.0,15.375 4.352,14.346 5.086,16.025 2.0,17.375"/>
  <circle cx="2.0" cy="16.375" r="1"/>
  <polygon points="18.914,7.975 22.0,6.625 22.0,8.625 19.648,9.654"/>
  <circle cx="22.0" cy="7.625" r="1"/>
  <polygon points="2.0,21.375 7.827,18.826 10.189,19.792 2.0,23.375"/>
  <circle cx="2.0" cy="22.375" r="1"/>
  <polygon points="19.845,13.568 22.0,12.625 22.0,14.625 18.952,15.959"/>
  <circle cx="22.0" cy="13.625" r="1"/>
  <path d="M20.0,12.0 A8.0,8.0 0 1,1 4.0,12.0 A8.0,8.0 0 1,1 20.0,12.0 M18.2,12.0 A6.2,6.2 0 1,0 5.8,12.0 A6.2,6.2 0 1,0 18.2,12.0 Z"/>
  <path d="M6.914,12.031 L8.804,12.031 L8.804,12.907 L6.914,12.907 L6.914,12.031 Z M9.755,14.144 L9.755,13.313 Q10.032,13.443 10.284,13.508 Q10.537,13.572 10.784,13.572 Q11.302,13.572 11.591,13.285 Q11.880,12.997 11.931,12.432 Q11.727,12.582 11.494,12.657 Q11.262,12.732 10.992,12.732 Q10.302,12.732 9.880,12.331 Q9.457,11.929 9.457,11.273 Q9.457,10.547 9.928,10.111 Q10.399,9.675 11.190,9.675 Q12.069,9.675 12.551,10.268 Q13.032,10.860 13.032,11.944 Q13.032,13.058 12.469,13.694 Q11.907,14.331 10.925,14.331 Q10.609,14.331 10.321,14.284 Q10.032,14.238 9.755,14.144 Z M11.184,11.980 Q11.489,11.980 11.642,11.784 Q11.795,11.586 11.795,11.192 Q11.795,10.801 11.642,10.602 Q11.489,10.403 11.184,10.403 Q10.880,10.403 10.727,10.602 Q10.574,10.801 10.574,11.192 Q10.574,11.586 10.727,11.784 Q10.880,11.980 11.184,11.980 Z M16.262,11.992 Q16.262,11.149 16.104,10.805 Q15.946,10.461 15.572,10.461 Q15.199,10.461 15.039,10.805 Q14.880,11.149 14.880,11.992 Q14.880,12.844 15.039,13.194 Q15.199,13.542 15.572,13.542 Q15.943,13.542 16.102,13.194 Q16.262,12.844 16.262,11.992 Z M17.420,12.001 Q17.420,13.118 16.939,13.724 Q16.457,14.331 15.572,14.331 Q14.684,14.331 14.203,13.724 Q13.721,13.118 13.721,12.001 Q13.721,10.881 14.203,10.276 Q14.684,9.669 15.572,9.669 Q16.457,9.669 16.939,10.276 Q17.420,10.881 17.420,12.001 Z"/>
</svg>
